<svg height="512" viewBox="0 0 64 64" width="512" xmlns="http://www.w3.org/2000/svg"><g id="coding"><path d="m59 15h-54a2 2 0 0 0 -2 2v28h58v-28a2 2 0 0 0 -2-2z" fill="#57a4ff"/><path d="m61 45v4a2.006 2.006 0 0 1 -2 2h-54a2.006 2.006 0 0 1 -2-2v-4z" fill="#e0e0e2"/><path d="m44 61h-24l3-4h18z" fill="#e0e0e2"/><path d="m38 51 1 6h-14l1-6z" fill="#57a4ff"/><path d="m61 17v28h-5v-28a2.006 2.006 0 0 0 -2-2h5a2.006 2.006 0 0 1 2 2z" fill="#2488ff"/><path d="m61 45v4a2.006 2.006 0 0 1 -2 2h-5a2.006 2.006 0 0 0 2-2v-4z" fill="#c6c5ca"/><path d="m44 61h-5l-3-4h5z" fill="#c6c5ca"/><path d="m39 57h-5l-1-6h5z" fill="#2488ff"/><path d="m57 29v4h-12v-2-2z" fill="#ff7956"/><path d="m35 37v4h-6v-4h3z" fill="#ffde55"/><path d="m35 31v2h-3-3v-2-2h6z" fill="#ffde55"/><path d="m17 3h30v22h-30z" fill="#46f8ff"/><path d="m43 3h4v22h-4z" fill="#00e7f0"/><path d="m19 31v2h-12v-4h12z" fill="#ff7956"/><path d="m59 14h-11v-11a1 1 0 0 0 -1-1h-30a1 1 0 0 0 -1 1v11h-11a3.009 3.009 0 0 0 -3 3v32a3.009 3.009 0 0 0 3 3h19.82l-.67 4h-1.15a1.014 1.014 0 0 0 -.8.4l-3 4a1 1 0 0 0 .8 1.6h24a1 1 0 0 0 .8-1.6l-3-4a1.014 1.014 0 0 0 -.8-.4h-1.15l-.67-4h19.82a3.009 3.009 0 0 0 3-3v-32a3.009 3.009 0 0 0 -3-3zm-41-10h28v20h-28zm22.5 54 1.5 2h-20l1.5-2zm-14.32-2 .67-4h10.3l.67 4zm33.82-7a1 1 0 0 1 -1 1h-54a1 1 0 0 1 -1-1v-3h56zm0-5h-56v-27a1 1 0 0 1 1-1h11v9a1 1 0 0 0 1 1h30a1 1 0 0 0 1-1v-9h11a1 1 0 0 1 1 1z"/><path d="m57 28h-12a1 1 0 0 0 -1 1v1h-8v-1a1 1 0 0 0 -1-1h-6a1 1 0 0 0 -1 1v1h-8v-1a1 1 0 0 0 -1-1h-12a1 1 0 0 0 -1 1v4a1 1 0 0 0 1 1h12a1 1 0 0 0 1-1v-1h8v1a1 1 0 0 0 1 1h2v2h-2a1 1 0 0 0 -1 1v4a1 1 0 0 0 1 1h6a1 1 0 0 0 1-1v-4a1 1 0 0 0 -1-1h-2v-2h2a1 1 0 0 0 1-1v-1h8v1a1 1 0 0 0 1 1h12a1 1 0 0 0 1-1v-4a1 1 0 0 0 -1-1zm-39 4h-10v-2h10zm16 6v2h-4v-2zm0-6h-4v-2h4zm22 0h-10v-2h10z"/><path d="m26.293 7.293-6 6a1 1 0 0 0 0 1.414l6 6 1.414-1.414-5.293-5.293 5.293-5.293z"/><path d="m37.707 7.293-1.414 1.414 5.293 5.293-5.293 5.293 1.414 1.414 6-6a1 1 0 0 0 0-1.414z"/><path d="m22.513 13h18.974v1.999h-18.974z" transform="matrix(.317 -.949 .949 .317 8.591 39.923)"/></g></svg>