<svg height="493pt" viewBox="0 -2 493.49384 493" width="493pt" xmlns="http://www.w3.org/2000/svg"><path d="m331.320312 139.539062-7.011718-43.347656c-.050782 0-.097656.011719-.148438.011719h-13.605468c-16.816407 0-31.242188-10.183594-37.476563-24.714844-7.308594 9.9375-19.046875 16.414063-32.328125 16.414063h-70.210938l-8.34375 51.5625-.019531.074218c-1.597656 6.023438-2.40625 12.210938-2.40625 18.425782v.003906c0 15.246094 12.753907 27.605469 28.492188 27.605469h116.972656c15.738281 0 28.496094-12.359375 28.496094-27.605469v-.003906c0-6.214844-.8125-12.40625-2.410157-18.425782zm0 0" fill="#4671c6"/><path d="m305.234375 189.570312h-116.972656c-17.917969 0-32.496094-14.175781-32.496094-31.605468 0-6.519532.847656-13.027344 2.515625-19.347656l8.308594-51.355469c.3125-1.9375 1.984375-3.359375 3.945312-3.359375h70.214844c11.589844 0 22.195312-5.390625 29.105469-14.785156.847656-1.15625 2.257812-1.773438 3.675781-1.605469 1.425781.164062 2.65625 1.078125 3.21875 2.398437 5.8125 13.539063 19.078125 22.289063 33.804688 22.289063h13.417968c.132813-.007813.234375-.011719.335938-.011719 1.953125 0 3.632812 1.414062 3.945312 3.363281l6.984375 43.15625c1.652344 6.292969 2.488281 12.769531 2.488281 19.257813.003907 17.429687-14.574218 31.605468-32.492187 31.605468zm-131.292969-97.667968-7.796875 48.199218c-.023437.148438-.054687.292969-.09375.433594-1.519531 5.714844-2.28125 11.570313-2.28125 17.429688 0 13.019531 10.988281 23.609375 24.492188 23.609375h116.976562c13.503907 0 24.492188-10.589844 24.492188-23.605469 0-5.863281-.761719-11.71875-2.273438-17.402344-.03125-.128906-.0625-.253906-.082031-.386718l-6.46875-39.976563h-10.347656c-15.824219 0-30.269532-8.300781-38.304688-21.585937-8.25 8.410156-19.636718 13.289062-31.5 13.289062h-66.8125zm0 0" fill="#3762cc"/><path d="m154.53125 251.445312-7.347656 48.53125c-.417969 2.761719-2.191406 5.125-4.722656 6.300782l-55.484376 25.765625c-.097656-.019531-.195312-.050781-.296874-.050781l-6.230469.050781c-.050781 0-.101563.007812-.152344.007812l-12.953125 1.285157c-.058594 0-.113281.003906-.167969.007812l-32.609375-.0625c-.957031-.003906-1.71875.785156-1.628906 1.738281.386719 4.113281 3.34375 7.519531 7.355469 8.484375l5.601562 1.347656c1.457031.351563 1.710938 2.308594.394531 3.019532l-20.433593 11.046875c-.207031.0625-.40625.121093-.617188.1875l-12.96875 1.285156c-5.042969.5-8.722656 4.992187-8.222656 10.03125.085937.875.851563 1.519531 1.726563 1.46875l49.175781-3.191406c.085937-.011719.175781-.027344.261719-.039063l36.808593-8.648437c.230469-.054688.433594-.164063.613281-.300781l70.160157-13.398438c7.371093-1.40625 13.414062-6.675781 15.8125-13.789062l24.828125-73.671876zm0 0" fill="#f9cfcf"/><path d="m5.664062 375.890625c-2.886718 0-5.308593-2.164063-5.5976558-5.074219-.3476562-3.5.6914058-6.925781 2.9179688-9.648437 2.230469-2.722657 5.386719-4.410157 8.890625-4.757813l12.496094-1.238281 14.582031-7.878906c-5.472656-1.492188-9.464844-6.222657-10-11.894531-.144531-1.5625.375-3.125 1.429687-4.28125 1.066407-1.167969 2.589844-1.835938 4.179688-1.835938h.011719l32.488281.0625 12.835938-1.273438c.054687-.003906.261718-.015624.316406-.019531l5.976562-.054687 54.582032-25.347656c1.320312-.613282 2.234374-1.832032 2.453124-3.273438l7.347657-48.53125c.160156-1.046875.726562-1.992188 1.582031-2.621094s1.921875-.894531 2.972656-.734375l48.902344 7.40625c1.167969.175781 2.199219.859375 2.816406 1.871094.613282 1.007813.75 2.238281.375 3.359375l-24.828125 73.679688c-2.851562 8.464843-10.074219 14.761718-18.847656 16.4375l-69.496094 13.273437c-.359375.171875-.730469.300781-1.117187.394531l-36.808594 8.644532c-.097656.023437-.199219.042968-.300781.058593l-.304688.046875c-.105469.011719-.207031.023438-.3125.03125l-49.175781 3.191406c-.121094.003907-.242188.007813-.367188.007813zm32.203126-38.605469c.773437 1.144532 1.957031 1.996094 3.359374 2.332032l5.601563 1.351562c2.289063.546875 3.964844 2.410156 4.269531 4.746094.300782 2.332031-.835937 4.5625-2.90625 5.679687l-20.4375 11.042969c-.230468.128906-.476562.230469-.726562.308594l-.609375.183594c-.253907.082031-.519531.132812-.785157.160156l-12.972656 1.285156c-1.375.136719-2.613281.800781-3.488281 1.867188-.367187.449218-.652344.949218-.851563 1.476562l46.171876-2.992188 36.195312-8.503906c.371094-.207031.773438-.355468 1.195312-.433594l70.164063-13.398437c5.945313-1.132813 10.835937-5.402344 12.769531-11.136719l23.304688-69.15625-40.230469-6.089844-6.75 44.578126c-.621094 4.097656-3.234375 7.582031-6.992187 9.328124l-55.484376 25.765626c-.714843.335937-1.511718.449218-2.292968.328124l-5.773438.046876-12.859375 1.273437c-.082031.007813-.167969.011719-.253906.015625-.046875 0-.261719.007812-.316406.007812zm52.328124 19.253906v.003907s0 0 0-.003907zm-3.480468-20.542968h-.007813zm0 0" fill="#3762cc"/><path d="m481.226562 360.390625-12.96875-1.285156c-.207031-.066407-.40625-.125-.617187-.1875l-20.433594-11.046875c-1.316406-.707032-1.0625-2.667969.394531-3.019532l5.601563-1.347656c4.011719-.964844 6.96875-4.371094 7.355469-8.484375.089844-.953125-.671875-1.742187-1.628906-1.738281l-32.609376.0625c-.054687-.003906-.109374-.007812-.167968-.007812l-12.957032-1.285157c-.046874 0-.09375-.007812-.140624-.007812l-6.238282-.050781c-.105468 0-.199218.03125-.296875.050781l-55.484375-25.765625c-2.527344-1.175782-4.304687-3.542969-4.722656-6.300782l-7.347656-48.53125-48.902344 7.402344 24.828125 73.675782c2.398437 7.113281 8.4375 12.378906 15.8125 13.789062l70.160156 13.394531c.179688.140625.382813.246094.613281.304688l36.808594 8.644531c.085938.015625.175782.027344.261719.039062l49.175781 3.191407c.878906.054687 1.640625-.59375 1.726563-1.46875.5-5.035157-3.179688-9.527344-8.222657-10.027344zm0 0" fill="#f9cfcf"/><path d="m487.835938 375.894531c-.121094 0-.242188-.003906-.367188-.011719l-49.179688-3.191406c-.105468-.007812-.210937-.019531-.316406-.03125l-.304687-.046875c-.101563-.015625-.199219-.035156-.300781-.058593l-36.804688-8.644532c-.386719-.089844-.757812-.222656-1.117188-.394531l-69.496093-13.273437c-8.773438-1.671876-15.996094-7.972657-18.847657-16.4375l-24.828124-73.675782c-.378907-1.121094-.242188-2.351562.375-3.359375.617187-1.011719 1.644531-1.695312 2.816406-1.871093l48.902344-7.40625c1.050781-.160157 2.117187.105468 2.972656.734374.851562.628907 1.421875 1.574219 1.578125 2.621094l7.351562 48.535156c.214844 1.433594 1.132813 2.65625 2.449219 3.269532l54.582031 25.347656 5.785157.042969c.070312 0 .140624.003906.210937.011719.050781 0 .246094.011718.292969.019531l12.839844 1.269531 32.488281-.0625h.011719c1.59375 0 3.117187.667969 4.179687 1.835938 1.054687 1.160156 1.578125 2.71875 1.429687 4.28125-.53125 5.671874-4.527343 10.40625-9.996093 11.894531l14.578125 7.882812 12.5 1.238281c3.5.34375 6.65625 2.035157 8.886718 4.753907 2.230469 2.722656 3.269532 6.148437 2.921876 9.648437-.289063 2.910156-2.710938 5.078125-5.59375 5.078125zm-48.835938-11.171875 46.171875 2.992188c-.199219-.527344-.480469-1.027344-.851563-1.476563-.875-1.066406-2.113281-1.730469-3.488281-1.867187l-12.972656-1.285156c-.265625-.027344-.527344-.082032-.785156-.160157l-.605469-.183593c-.253906-.078126-.496094-.179688-.730469-.308594l-20.433593-11.042969c-2.070313-1.117187-3.210938-3.347656-2.90625-5.683594.304687-2.332031 1.980468-4.195312 4.265624-4.742187l5.601563-1.347656c1.40625-.339844 2.589844-1.1875 3.363281-2.332032l-29.300781.054688c-.058594 0-.144531 0-.214844-.003906-.0625-.003907-.292969-.015626-.355469-.019532l-12.851562-1.277344-5.78125-.042968c-.777344.117187-1.578125.003906-2.296875-.328125l-55.480469-25.765625c-3.757812-1.742188-6.371094-5.230469-6.992187-9.328125l-6.75-44.578125-40.230469 6.09375 23.304688 69.15625c1.933593 5.734375 6.824218 10 12.769531 11.136718l70.164062 13.394532c.417969.082031.824219.230468 1.195313.4375zm-35.699219-8.183594v.003907s0 0 0-.003907zm0 0" fill="#3762cc"/><path d="m141.539062 390.390625 105.207032 17.8125 105.210937-17.8125c.234375-.039063.472657-.050781.707031-.078125l-.03125-.007812-37.195312-10.949219h-41.835938c-12.628906 0-23.3125 8.332031-26.855468 19.796875-3.539063-11.464844-14.222656-19.796875-26.851563-19.796875h-41.832031l-37.199219 10.949219-.03125.007812c.234375.027344.472657.039062.707031.078125zm0 0" fill="#4671c6"/><path d="m246.746094 412.203125c-.222656 0-.445313-.019531-.667969-.054687l-105.675781-17.859376c-1.890625-.203124-3.378906-1.710937-3.550782-3.609374-.175781-1.894532 1.007813-3.652344 2.832032-4.195313l37.25-10.964844c.367187-.109375.746094-.164062 1.128906-.164062h41.832031c11.085938 0 21.042969 5.5625 26.855469 14.460937 5.8125-8.898437 15.769531-14.460937 26.855469-14.460937h41.832031c.382812 0 .761719.054687 1.128906.164062l37.203125 10.949219c1.828125.539062 3.039063 2.296875 2.867188 4.199219-.167969 1.898437-1.644531 3.417969-3.539063 3.621093l-.300781.03125-105.375 17.828126c-.226563.035156-.449219.054687-.675781.054687zm-88.082032-22.96875 88.082032 14.914063 88.082031-14.914063-19.96875-5.878906h-41.257813c-10.636718 0-19.894531 6.824219-23.03125 16.980469-.519531 1.675781-2.070312 2.820312-3.824218 2.820312s-3.300782-1.144531-3.820313-2.820312c-3.136719-10.15625-12.394531-16.980469-23.03125-16.980469h-41.257812zm0 0" fill="#3762cc"/><path d="m153.480469 251.285156 53.472656 8.097656 10.234375-67.59375-10.019531-1.515624c-24-3.632813-46.398438 12.878906-50.035157 36.878906zm0 0" fill="#f9a7a7"/><path d="m340.015625 251.285156-53.472656 8.097656-10.234375-67.59375 10.015625-1.515624c24-3.632813 46.402343 12.878906 50.039062 36.878906zm0 0" fill="#f9a7a7"/><path d="m311.300781 96.679688c-.136719 0-.269531.019531-.40625.019531v-6.058594c0-35.429687-28.71875-64.148437-64.148437-64.148437-35.425782 0-64.144532 28.71875-64.144532 64.148437v6.058594c-.136718 0-.269531-.019531-.40625-.019531-10.808593 0-19.570312 8.761718-19.570312 19.570312s8.761719 19.570312 19.570312 19.570312c.707032 0 1.410157-.042968 2.097657-.117187 6.621093 28.382813 32.058593 49.527344 62.453125 49.527344 30.398437 0 55.835937-21.144531 62.457031-49.527344.6875.074219 1.390625.117187 2.097656.117187 10.808594 0 19.570313-8.761718 19.570313-19.570312s-8.761719-19.570312-19.570313-19.570312zm0 0" fill="#f9cfcf"/><path d="m246.746094 189.234375c-30.734375 0-57.222656-20.164063-65.523438-49.429687-12.546875-.515626-22.597656-10.882813-22.597656-23.550782 0-11.777344 8.675781-21.5625 19.976562-23.300781v-2.3125c0-37.578125 30.570313-68.148437 68.144532-68.148437 37.578125 0 68.148437 30.574218 68.148437 68.148437v2.3125c11.300781 1.738281 19.976563 11.523437 19.976563 23.300781 0 12.667969-10.050782 23.035156-22.597656 23.550782-8.300782 29.265624-34.789063 49.429687-65.527344 49.429687zm-62.449219-57.527344c1.835937 0 3.464844 1.265625 3.890625 3.09375 6.375 27.339844 30.457031 46.433594 58.558594 46.433594 28.101562 0 52.183594-19.09375 58.558594-46.433594.457031-1.96875 2.308593-3.269531 4.324218-3.070312.550782.058593 1.105469.09375 1.671875.09375 8.585938 0 15.570313-6.984375 15.570313-15.570313 0-8.566406-6.953125-15.539062-15.511719-15.574218-.105469.007812-.332031.019531-.378906.019531-1.089844.046875-2.113281-.386719-2.882813-1.136719-.769531-.753906-1.203125-1.785156-1.203125-2.859375v-6.058594c0-33.167969-26.980469-60.148437-60.148437-60.148437-33.164063 0-60.144532 26.980468-60.144532 60.144531v6.058594c0 1.078125-.4375 2.109375-1.203124 2.859375-.769532.753906-1.785157 1.179687-2.882813 1.140625-.066406 0-.320313-.015625-.386719-.019531-8.519531 0-15.503906 6.984374-15.503906 15.570312s6.984375 15.570312 15.570312 15.570312c.566407 0 1.121094-.035156 1.671876-.09375.144531-.011718.289062-.019531.429687-.019531zm0 0" fill="#3762cc"/><path d="m224.800781 211.53125h43.894531l7.449219-19.625h-.046875c.125-.511719.210938-1.03125.210938-1.5625v-12.328125c-8.84375 4.605469-18.894532 7.21875-29.558594 7.21875s-20.714844-2.613281-29.558594-7.21875v12.363281c0 .519532.082032 1.027344.199219 1.523438h-.039063zm0 0" fill="#f9cfcf"/><path d="m276.738281 15.902344h-6.953125v.816406c-7.3125-7.667969-17.601562-12.472656-29.035156-12.472656h-12.601562c-34.09375 0-61.734376 27.640625-61.734376 61.734375v20.164062c0 .972657.789063 1.757813 1.761719 1.757813h72.574219c13.28125 0 25.019531-6.476563 32.328125-16.414063 6.234375 14.53125 20.664063 24.714844 37.476563 24.714844h13.605468c1.871094 0 3.390625-1.515625 3.390625-3.386719v-26.101562c0-28.0625-22.75-50.8125-50.8125-50.8125zm0 0" fill="#4671c6"/><path d="m324.160156 100.203125h-13.601562c-15.8125 0-30.25-8.285156-38.289063-21.550781-8.246093 8.382812-19.636719 13.25-31.519531 13.25h-72.574219c-3.175781 0-5.757812-2.582032-5.757812-5.757813v-20.164062c0-36.246094 29.488281-65.734375 65.734375-65.734375h12.597656c11.210938 0 21.710938 4.117187 29.878906 11.65625h6.113282c30.222656 0 54.808593 24.589844 54.808593 54.8125v26.101562c0 4.074219-3.316406 7.386719-7.390625 7.386719zm-51.066406-32.671875c.148438 0 .300781.007812.457031.027344 1.421875.164062 2.652344 1.078125 3.21875 2.390625 5.816407 13.519531 19.082031 22.253906 33.789063 22.253906h12.992187v-25.488281c0-25.8125-21-46.8125-46.8125-46.8125h-4.582031c-.269531.199218-.5625.367187-.882812.496094-1.515626.609374-3.25.230468-4.382813-.953126-6.894531-7.222656-16.175781-11.199218-26.140625-11.199218h-12.597656c-31.835938 0-57.734375 25.902344-57.734375 57.734375v17.921875h70.332031c11.441406 0 22.324219-5.507813 29.125-14.742188.757812-1.027344 1.957031-1.628906 3.21875-1.628906zm0 0" fill="#3762cc"/><path d="m153.480469 251.285156 53.472656 8.097656 10.234375-67.59375-10.019531-1.515624c-24-3.632813-46.398438 12.878906-50.035157 36.878906zm0 0" fill="#f9a7a7"/><path d="m340.015625 251.285156-53.472656 8.097656-10.234375-67.59375 10.015625-1.515624c24-3.632813 46.402343 12.878906 50.039062 36.878906zm0 0" fill="#f9a7a7"/><path d="m224.800781 211.53125h43.894531l7.449219-19.625h-.046875c.125-.511719.210938-1.03125.210938-1.5625v-12.328125c-8.84375 4.605469-18.894532 7.21875-29.558594 7.21875s-20.714844-2.613281-29.558594-7.21875v12.363281c0 .519532.082032 1.027344.199219 1.523438h-.039063zm0 0" fill="#f9cfcf"/><path d="m283.710938 191.761719h-71.753907c-19.816406 0-35.882812 16.066406-35.882812 35.882812v28.703125c0 2.710938.273437 5.414063.816406 8.0625.183594.882813.394531 1.761719.632813 2.632813l10.207031 36.933593c.5 1.804688.875 3.636719 1.128906 5.492188.25 1.851562.375 3.71875.375 5.589844v20.878906c0 2.210938-.175781 4.410156-.523437 6.582031-.347657 2.171875-.867188 4.320313-1.558594 6.417969l-7.722656 23.484375s65.972656 52.082031 137.191406 0l-7.933594-23.339844c-.730469-2.144531-1.28125-4.339843-1.652344-6.570312-.371094-2.226563-.558594-4.484375-.5625-6.746094l-.015625-10.335937-.019531-10.332032c-.003906-1.882812.121094-3.765625.371094-5.628906.253906-1.867188.628906-3.710938 1.132812-5.527344l10.195313-36.898437c.242187-.871094.453125-1.75.632812-2.632813.542969-2.652344.820313-5.351562.820313-8.0625v-28.703125c.003906-19.816406-16.058594-35.882812-35.878906-35.882812zm0 0" fill="#6bdddd"/><path d="m153.480469 251.285156 53.472656 8.097656 10.234375-67.59375-10.019531-1.515624c-24-3.632813-46.398438 12.878906-50.035157 36.878906zm0 0" fill="#6bdddd"/><path d="m340.015625 251.285156-53.472656 8.097656-10.234375-67.59375 10.015625-1.515624c24-3.632813 46.402343 12.878906 50.039062 36.878906zm0 0" fill="#6bdddd"/><path d="m224.800781 211.53125h43.894531l7.449219-19.625h-.046875c.125-.511719.210938-1.03125.210938-1.5625v-12.328125c-8.84375 4.605469-18.894532 7.21875-29.558594 7.21875s-20.714844-2.613281-29.558594-7.21875v12.363281c0 .519532.082032 1.027344.199219 1.523438h-.039063zm0 0" fill="#f9cfcf"/><g fill="#3762cc"><path d="m175.613281 258.640625c-.199219 0-.398437-.019531-.601562-.046875l-22.128907-3.351562c-1.046874-.160157-1.992187-.726563-2.621093-1.582032-.628907-.851562-.894531-1.921875-.734375-2.972656l3.65625-24.132812c1.917968-12.664063 8.648437-23.824219 18.960937-31.421876 10.308594-7.601562 22.964844-10.722656 35.625-8.8125l10.015625 1.515626c2.183594.332031 3.6875 2.371093 3.355469 4.554687-.328125 2.183594-2.367187 3.683594-4.550781 3.355469l-10.019532-1.515625c-10.550781-1.601563-21.089843 1.007812-29.683593 7.339843-8.589844 6.332032-14.199219 15.628907-15.796875 26.179688l-3.054688 20.179688 18.171875 2.753906c2.183594.332031 3.6875 2.371094 3.355469 4.554687-.296875 1.980469-2.003906 3.398438-3.949219 3.402344zm0 0"/><path d="m319.589844 258.382812c-1.945313 0-3.648438-1.421874-3.949219-3.402343-.332031-2.1875 1.171875-4.222657 3.355469-4.554688l16.464844-2.496093-3.058594-20.179688c-1.597656-10.550781-7.207032-19.847656-15.796875-26.179688-8.589844-6.332031-19.128907-8.9375-29.683594-7.339843l-10.015625 1.515625c-2.191406.332031-4.222656-1.171875-4.554688-3.355469-.328124-2.183594 1.171876-4.222656 3.355469-4.554687l10.015625-1.515626c12.664063-1.917968 25.316406 1.207032 35.628906 8.8125 10.308594 7.597657 17.042969 18.757813 18.960938 31.421876l3.65625 24.132812c.332031 2.183594-1.171875 4.222656-3.355469 4.554688l-20.421875 3.09375c-.199218.027343-.402344.046874-.601562.046874zm0 0"/><path d="m276.144531 195.90625h-.046875c-1.230468 0-2.394531-.566406-3.152344-1.535156-.757812-.96875-1.03125-2.230469-.734374-3.425782.066406-.257812.097656-.460937.097656-.601562v-6.085938c-16.167969 6.535157-34.953125 6.535157-51.121094 0v6.125c0 .132813.03125.335938.089844.589844.515625 2.144532-.808594 4.304688-2.957032 4.820313-2.152343.511719-4.308593-.808594-4.824218-2.957031-.207032-.878907-.308594-1.679688-.308594-2.457032v-12.363281c0-1.398437.726562-2.695313 1.921875-3.421875 1.199219-.722656 2.683594-.769531 3.921875-.125 8.621094 4.488281 17.945312 6.765625 27.710938 6.765625 9.769531 0 19.089843-2.277344 27.714843-6.765625 1.242188-.644531 2.726563-.597656 3.921875.125 1.195313.726562 1.921875 2.023438 1.921875 3.421875v12.328125c0 .640625-.070312 1.300781-.210937 2-.207032 2-1.882813 3.5625-3.945313 3.5625zm0 0"/><path d="m249.699219 399.417969c-41.8125.003906-72.289063-23.5-72.746094-23.859375-1.316406-1.042969-1.84375-2.792969-1.320313-4.390625l7.722657-23.484375c.621093-1.882813 1.09375-3.835938 1.410156-5.796875.3125-1.960938.472656-3.960938.472656-5.949219v-20.878906c0-1.683594-.117187-3.382813-.34375-5.054688-.226562-1.667968-.566406-3.335937-1.015625-4.960937l-10.210937-36.933594c-.261719-.957031-.496094-1.925781-.695313-2.898437-.59375-2.90625-.898437-5.890626-.898437-8.867188v-28.699219c0-2.207031 1.792969-4 4-4s4 1.792969 4 4v28.699219c0 2.433594.246093 4.878906.734375 7.261719.164062.796875.351562 1.585937.570312 2.371093l10.210938 36.933594c.542968 1.972656.957031 3.996094 1.230468 6.019532.277344 2.027343.414063 4.089843.414063 6.128906v20.878906c0 2.410156-.191406 4.835938-.574219 7.214844-.378906 2.375-.957031 4.742187-1.707031 7.03125l-6.820313 20.734375c11.800782 8.300781 67.144532 42.367187 127.746094-.023438l-6.980468-20.53125c-.792969-2.335937-1.402344-4.757812-1.804688-7.195312-.40625-2.441407-.617188-4.929688-.621094-7.398438l-.035156-20.667969c0-2.0625.132812-4.136718.410156-6.171874.273438-2.03125.691406-4.070313 1.242188-6.054688l10.195312-36.898438c.21875-.785156.410156-1.574218.570313-2.367187.492187-2.386719.738281-4.832031.738281-7.265625v-28.699219c0-2.207031 1.792969-4 4-4s4 1.792969 4 4v28.699219c0 2.976562-.300781 5.960938-.898438 8.871094-.199218.96875-.429687 1.9375-.699218 2.894531l-10.195313 36.894531c-.453125 1.636719-.796875 3.316406-1.023437 4.996094-.226563 1.675781-.339844 3.390625-.335938 5.089844l.035156 20.667968c.003907 2.03125.175782 4.085938.511719 6.097657.332031 2.011719.835938 4.007812 1.488281 5.933593l7.933594 23.34375c.5625 1.652344-.011718 3.480469-1.425781 4.515626-24.367187 17.820312-48.265625 23.765624-69.285156 23.769531zm0 0"/><path d="m246.746094 158.738281c-9.105469 0-16.511719-6.007812-16.511719-13.394531 0-1.660156 1.339844-3 3-3 1.65625 0 3 1.339844 3 3 0 4.007812 4.8125 7.394531 10.511719 7.394531 5.703125 0 10.515625-3.386719 10.515625-7.394531 0-1.660156 1.34375-3 3-3s3 1.339844 3 3c0 7.386719-7.40625 13.394531-16.515625 13.394531zm0 0"/><path d="m214.746094 121.523438c-8.269532 0-15-5.832032-15-13 0-1.65625 1.34375-3 3-3 1.660156 0 3 1.34375 3 3 0 3.863281 4.039062 7 9 7 4.964844 0 9-3.136719 9-7 0-1.65625 1.34375-3 3-3 1.660156 0 3 1.34375 3 3 0 7.167968-6.726563 13-15 13zm0 0"/><path d="m278.746094 121.523438c-8.269532 0-15-5.832032-15-13 0-1.65625 1.34375-3 3-3 1.660156 0 3 1.34375 3 3 0 3.863281 4.039062 7 9 7 4.964844 0 9-3.136719 9-7 0-1.65625 1.34375-3 3-3 1.660156 0 3 1.34375 3 3 0 7.167968-6.726563 13-15 13zm0 0"/></g><path d="m56.089844 167.652344c-6.746094 14.738281-17.933594 27.015625-31.855469 35.128906-2.5 1.457031-2.5 4.988281 0 6.445312 13.921875 8.109376 25.109375 20.390626 31.855469 35.128907 1.308594 2.863281 5.386718 2.863281 6.699218 0 6.746094-14.738281 17.929688-27.019531 31.855469-35.128907 2.496094-1.457031 2.496094-4.988281 0-6.445312-13.925781-8.113281-25.109375-20.390625-31.855469-35.128906-1.3125-2.863282-5.390624-2.863282-6.699218 0zm0 0" fill="#ffea92"/><path d="m90.835938 111.027344c-4.71875 10.316406-12.550782 18.914062-22.296876 24.59375-1.75 1.019531-1.75 3.492187 0 4.511718 9.746094 5.675782 17.578126 14.273438 22.296876 24.589844.917968 2.003906 3.773437 2.003906 4.691406 0 4.71875-10.316406 12.546875-18.910156 22.296875-24.589844 1.746093-1.019531 1.746093-3.492187 0-4.511718-9.75-5.679688-17.578125-14.273438-22.296875-24.59375-.917969-2.003906-3.773438-2.003906-4.691406 0zm0 0" fill="#ffea92"/><path d="m437.40625 167.652344c6.746094 14.738281 17.933594 27.015625 31.855469 35.128906 2.5 1.457031 2.5 4.988281 0 6.445312-13.921875 8.109376-25.109375 20.390626-31.855469 35.128907-1.308594 2.863281-5.386719 2.863281-6.699219 0-6.746093-14.738281-17.929687-27.019531-31.855469-35.128907-2.496093-1.457031-2.496093-4.988281 0-6.445312 13.925782-8.113281 25.109376-20.390625 31.855469-35.128906 1.3125-2.863282 5.390625-2.863282 6.699219 0zm0 0" fill="#ffea92"/><path d="m402.660156 111.027344c4.71875 10.316406 12.550782 18.914062 22.296875 24.59375 1.75 1.019531 1.75 3.492187 0 4.511718-9.746093 5.675782-17.578125 14.273438-22.296875 24.589844-.917968 2.003906-3.773437 2.003906-4.691406 0-4.71875-10.316406-12.550781-18.910156-22.296875-24.589844-1.746094-1.019531-1.746094-3.492187 0-4.511718 9.746094-5.679688 17.578125-14.273438 22.296875-24.59375.917969-2.003906 3.773438-2.003906 4.691406 0zm0 0" fill="#ffea92"/><path d="m398.308594 406.253906c-1.15625-2.242187-2.179688-3.605468-2.519532-4.019531-.238281-.21875-.464843-.445313-.726562-.636719-5.234375-5.65625-18-14.039062-46.816406-12.0625-.347656.007813-.675782.019532-.972656.035156l-.285157.046876c-.878906.070312-1.804687.167968-2.710937.253906v-.019532s-.195313.027344-.476563.066407c-.539062.054687-1.054687.089843-1.601562.148437l-.003907.074219c-5.050781.707031-18.5 2.710937-30.339843 5.425781l-119.832031 20.285156c-1.5625.265626-3.164063.191407-4.695313-.210937l-26.417969-6.996094c-.71875-.195312-1.472656-.234375-2.214844-.128906l-5.378906.777344c-2.90625.421875-4.984375 3.035156-4.734375 5.964843l2.734375 32.109376 2.734375 32.113281c.25 2.925781 2.738281 5.152343 5.675781 5.074219l5.433594-.140626c.746094-.019531 1.480469-.191406 2.160156-.5l24.855469-11.363281c1.441407-.65625 3.003907-1 4.589844-1.003906l162.664063-.359375c.972656 0 1.9375-.136719 2.871093-.378906 20.050781-3.070313 36.441407-19 36.8125-19.359375.007813-.011719.019531-.019531.027344-.027344 0 0 .007813-.007813.007813-.007813.703124-.714843 1.277343-1.519531 1.707031-2.382812 8.820312-15.207031 1.121093-35.007812-2.5-42.644531-.007813-.046875-.035157-.085938-.046875-.132813zm0 0" fill="#f9cfcf"/><path d="m159.578125 488.558594c-4.9375 0-9.089844-3.792969-9.511719-8.738282l-5.464844-64.222656c-.429687-5.03125 3.148438-9.539062 8.144532-10.261718l5.378906-.777344c1.277344-.183594 2.5625-.113282 3.8125.21875l26.417969 6.996094c.96875.257812 2.007812.304687 3 .140624l119.71875-20.269531c11.390625-2.605469 24.183593-4.550781 29.847656-5.363281.269531-.089844.546875-.15625.839844-.1875.347656-.039062.683593-.066406 1.015625-.097656l.984375-.105469c.175781-.023437.308593-.023437.519531-.035156l.378906-.039063c.617188-.0625 1.234375-.121094 1.832032-.167968l.117187-.023438c.144531-.023438.292969-.039062.441406-.046875.34375-.019531.722657-.035156 1.117188-.042969 30.242187-2.082031 44.019531 7.207032 49.613281 13.113282.199219.164062.394531.339843.582031.515624.136719.125.414063.398438.53125.542969.347657.425781 1.582031 2.023438 2.96875 4.707031.078125.144532.140625.292969.199219.445313 3.976562 8.449219 11.902344 29.390625 2.316406 46.074219-.605468 1.179687-1.390625 2.269531-2.335937 3.242187-.023438.023438-.046875.046875-.070313.070313-.769531.753906-17.6875 17.15625-38.871094 20.484375-1.222656.300781-2.453124.453125-3.660156.457031l-162.667968.355469c-1.019532.003906-2.007813.21875-2.933594.644531l-24.855469 11.363281c-1.175781.535157-2.429687.824219-3.71875.859375l-5.433594.144532c-.085937.003906-.171875.003906-.253906.003906zm-.085937-76.101563c-.074219 0-.148438.007813-.21875.019531l-5.382813.777344c-.808594.117188-1.390625.847656-1.320313 1.664063l5.46875 64.222656c.070313.816406.800782 1.480469 1.582032 1.414063l5.433594-.140626c.210937-.003906.414062-.054687.605468-.140624l24.851563-11.363282c1.972656-.902344 4.078125-1.363281 6.246093-1.367187l162.667969-.359375c.601563 0 1.230469-.085938 1.867188-.25.132812-.035156.269531-.0625.40625-.085938 18.734375-2.867187 34.457031-18.101562 34.613281-18.257812.007812-.007813.015625-.015625.027344-.023438.386718-.402344.703125-.84375.9375-1.316406.035156-.078125.078125-.152344.121094-.226562 7.847656-13.539063.757812-31.734376-2.65625-38.925782-.035157-.078125-.066407-.152344-.097657-.230468-.816406-1.542969-1.519531-2.539063-1.8125-2.929688-.050781-.046875-.101562-.09375-.15625-.136719-.175781-.132812-.398437-.328125-.546875-.492187-4.480468-4.835938-16.097656-12.675782-43.605468-10.785156-.363282.007812-.609376.015624-.816407.027343l-.054687.007813c-.113282.019531-.230469.035156-.347656.042968-.601563.046876-1.226563.109376-1.851563.171876l-.792969.078124c-.085937.007813-.167968.011719-.25.015626l-1.101562.109374c-.179688.050782-.363282.09375-.558594.121094-5.144531.722656-18.375 2.699219-30 5.363282-.074219.019531-.152344.03125-.226562.046874l-119.832032 20.285157c-2.109375.359375-4.320312.257812-6.390625-.289063l-26.414062-6.996094c-.128907-.03125-.261719-.050781-.394531-.050781zm0 0" fill="#3762cc"/><path d="m95.1875 406.253906c1.15625-2.242187 2.179688-3.605468 2.519531-4.019531.238281-.21875.464844-.445313.726563-.636719 5.234375-5.65625 18-14.039062 46.816406-12.0625.347656.007813.675781.019532.972656.035156l.285156.046876c.878907.070312 1.804688.167968 2.710938.253906v-.019532s.195312.027344.476562.066407c.539063.054687 1.050782.089843 1.601563.148437l.003906.074219c5.050781.707031 18.5 2.710937 30.339844 5.425781l119.832031 20.285156c1.5625.265626 3.164063.191407 4.695313-.210937l26.414062-6.996094c.722657-.195312 1.476563-.234375 2.21875-.128906l5.378907.777344c2.90625.421875 4.980468 3.035156 4.730468 5.964843l-2.730468 32.109376-2.734376 32.113281c-.25 2.925781-2.738281 5.152343-5.675781 5.074219l-5.433593-.140626c-.746094-.019531-1.480469-.191406-2.160157-.5l-24.855469-11.363281c-1.441406-.65625-3.003906-1-4.589843-1.003906l-162.664063-.359375c-.972656 0-1.9375-.136719-2.871094-.378906-20.050781-3.070313-36.445312-19-36.8125-19.359375-.007812-.011719-.019531-.019531-.027343-.027344 0 0-.007813-.007813-.007813-.007813-.703125-.714843-1.277344-1.519531-1.707031-2.382812-8.820313-15.207031-1.121094-35.007812 2.5-42.644531.007813-.046875.035156-.085938.046875-.132813zm0 0" fill="#f9cfcf"/><path d="m333.917969 488.558594c-.085938 0-.167969 0-.253907 0l-5.433593-.144532c-1.289063-.03125-2.542969-.324218-3.71875-.859374l-24.855469-11.367188c-.925781-.421875-1.914062-.636719-2.933594-.640625l-162.667968-.359375c-1.207032 0-2.4375-.15625-3.660157-.457031-20.964843-3.292969-37.757812-19.394531-38.789062-20.398438-.03125-.027343-.058594-.058593-.085938-.085937-.992187-1.007813-1.792969-2.113282-2.402343-3.3125-9.585938-16.679688-1.660157-37.621094 2.316406-46.070313.054687-.152343.121094-.300781.199218-.445312 1.386719-2.683594 2.625-4.28125 2.96875-4.703125.121094-.15625.257813-.300782.40625-.433594.269532-.253906.492188-.453125.703126-.628906 5.589843-5.902344 19.386718-15.199219 49.8125-13.101563.207031.019531.578124.011719.917968.027344.152344.007813.296875.027344.445313.050781l.113281.019532c.597656.046874 1.214844.109374 1.832031.171874l.386719.035157c.210938-.007813.34375.011719.515625.035156l.984375.105469c.332031.03125.667969.058594 1.015625.097656.300781.03125.585937.097656.863281.191406 5.671875.8125 18.449219 2.757813 29.824219 5.359375l119.71875 20.269531c.992187.167969 2.027344.121094 3-.136718l26.417969-6.996094c1.25-.332031 2.535156-.40625 3.8125-.21875l5.378906.777344c4.996094.722656 8.574219 5.230468 8.144531 10.261718l-5.464843 64.222657c-.421876 4.941406-4.574219 8.734375-9.511719 8.734375zm-236.714844-39.945313c1.511719 1.4375 16.675781 15.496094 34.597656 18.238281.136719.023438.269531.050782.402344.085938.636719.164062 1.265625.25 1.867187.25l162.667969.359375c2.171875.003906 4.273438.464844 6.246094 1.367187l24.855469 11.363282c.191406.085937.394531.132812.601562.140625l5.433594.140625c.832031.082031 1.515625-.601563 1.582031-1.417969l5.46875-64.21875c.070313-.816406-.511719-1.550781-1.320312-1.667969l-5.378907-.777344c-.207031-.03125-.414062-.015624-.617187.035157l-26.417969 6.996093c-2.066406.550782-4.277344.652344-6.386718.292969l-119.832032-20.285156c-.078125-.015625-.152344-.027344-.226562-.046875-11.625-2.664062-24.855469-4.640625-30.003906-5.363281-.191407-.027344-.382813-.070313-.566407-.121094l-1.078125-.109375c-.085937-.003906-.171875-.007812-.257812-.015625l-.792969-.078125c-.628906-.0625-1.25-.125-1.851563-.171875-.121093-.007813-.234374-.023437-.351562-.042969l-.050781-.007812c-.199219-.007813-.40625-.015625-.625-.019532-27.707031-1.902343-39.320313 5.9375-43.796875 10.777344-.167969.179688-.351563.347656-.550782.496094-.050781.039062-.101562.085938-.15625.132812-.292968.390626-.996093 1.386719-1.808593 2.929688-.035157.078125-.066407.152344-.101563.230469-3.414062 7.195312-10.503906 25.386719-2.652344 38.925781.039063.074219.082032.148438.121094.226562.242188.488282.570313.941407.976563 1.355469 0-.003906.003906-.003906.003906 0zm-2.039063-42.300781h.019532zm0 0" fill="#3762cc"/></svg>