<svg height="512" viewBox="0 0 496.00023 496" width="512" xmlns="http://www.w3.org/2000/svg"><path d="m152 496v-72h-88v-104h-56l56-120c0-57.441406 46.558594-104 104-104h40c57.441406 0 104 46.558594 104 104v104l-48 96v96" fill="#ceb2aa"/><path d="m288 304v-104c0-57.441406-46.558594-104-104-104h-16c-57.441406 0-104 46.558594-104 104l-56 120h56v104h88v72h88v-96zm0 0" fill="#e5c7bd"/><path d="m392 248v-80h96v-160h-94.054688c-6.367187 0-12.472656 2.527344-16.96875 7.03125l-8.976562 8.96875-8.96875-8.96875c-4.503906-4.503906-10.605469-7.03125-16.976562-7.03125h-94.054688v160h96v80" fill="#ed6863"/><path d="m264 392h-96v-160h-48c-13.253906 0-24-10.742188-24-24s10.746094-24 24-24c0-13.257812 10.746094-24 24-24 2.808594 0 5.496094.480469 8 1.367188v-1.367188c0-17.671875 14.328125-32 32-32 16.566406 0 30.199219 12.59375 31.832031 28.726562l-.039062-.328124c4.757812-2.796876 10.296875-4.398438 16.207031-4.398438 17.671875 0 32 14.328125 32 32v4.28125c9.566406 5.535156 16 15.871094 16 27.71875 0 17.671875-14.328125 32-32 32h-48v96h64" fill="#afe26c"/><path d="m168 232h16v160h-16zm0 0" fill="#7ec95f"/><path d="m488 392v-48h-18.894531c-2.707031-11.414062-7.265625-22.097656-13.394531-31.710938l16.289062-16.289062-32-32-16.289062 16.289062c-9.613282-6.128906-20.292969-10.6875-31.710938-13.394531v-18.894531h-48v18.894531c-11.414062 2.707031-22.097656 7.265625-31.710938 13.394531l-16.289062-16.289062-32 32 16.289062 16.289062c-6.128906 9.613282-10.6875 20.296876-13.394531 31.710938h-18.894531v48h18.894531c2.707031 11.417969 7.265625 22.097656 13.394531 31.710938l-16.289062 16.289062 32 32 16.289062-16.289062c9.613282 6.128906 20.296876 10.6875 31.710938 13.394531v18.894531h48v-18.894531c11.417969-2.707031 22.097656-7.265625 31.710938-13.394531l16.289062 16.289062 32-32-16.289062-16.289062c6.128906-9.613282 10.6875-20.292969 13.394531-31.710938zm0 0" fill="#b3b6c2"/><path d="m440 368c0 39.765625-32.234375 72-72 72s-72-32.234375-72-72 32.234375-72 72-72 72 32.234375 72 72zm0 0" fill="#d8d8e3"/><path d="m408 368c0 22.089844-17.910156 40-40 40s-40-17.910156-40-40 17.910156-40 40-40 40 17.910156 40 40zm0 0" fill="#eef2f9"/><path d="m160 496h-16v-64h-80c-4.414062 0-8-3.582031-8-8v-96h-48c-2.734375 0-5.28125-1.390625-6.742188-3.703125-1.472656-2.304687-1.664062-5.199219-.503906-7.679687l55.261719-118.425782c.96875-60.925781 50.832031-110.191406 111.984375-110.191406h40c14.929688 0 29.417969 2.886719 43.082031 8.59375l-6.167969 14.765625c-11.699218-4.878906-24.113281-7.359375-36.914062-7.359375h-40c-52.9375 0-96 43.0625-96 96 0 1.167969-.253906 2.328125-.75 3.382812l-50.691406 108.617188h43.441406c4.417969 0 8 3.585938 8 8v96h80c4.417969 0 8 3.585938 8 8zm0 0"/><path d="m248 352h-48c-4.414062 0-8-3.582031-8-8v-96c0-4.414062 3.585938-8 8-8h48c13.230469 0 24-10.769531 24-24s-10.769531-24-24-24h-8v-16h8c22.054688 0 40 17.945312 40 40s-17.945312 40-40 40h-40v80h40zm0 0"/><path d="m232 224c-22.054688 0-40-17.945312-40-40s17.945312-40 40-40 40 17.945312 40 40h-16c0-13.230469-10.769531-24-24-24s-24 10.769531-24 24 10.769531 24 24 24zm0 0"/><path d="m224 160h-16c0-13.230469-10.769531-24-24-24s-24 10.769531-24 24h-16c0-22.054688 17.945312-40 40-40s40 17.945312 40 40zm0 0"/><path d="m176 184h-16c0-8.824219-7.175781-16-16-16s-16 7.175781-16 16h-16c0-17.648438 14.351562-32 32-32s32 14.351562 32 32zm0 0"/><path d="m266.894531 352h-18.894531v-16h12.753906c2.328125-7.832031 5.496094-15.34375 9.46875-22.464844l-11.878906-11.878906c-3.128906-3.128906-3.128906-8.183594 0-11.3125l32-32c3.128906-3.128906 8.183594-3.128906 11.3125 0l11.878906 11.878906c7.121094-3.972656 14.632813-7.140625 22.464844-9.46875v-84.753906h-80v-16h88c4.417969 0 8 3.585938 8 8v98.894531c0 3.707031-2.542969 6.929688-6.160156 7.785157-10.414063 2.464843-20.261719 6.625-29.261719 12.351562-3.167969 2.015625-7.304687 1.570312-9.953125-1.085938l-10.625-10.632812-20.6875 20.6875 10.632812 10.632812c2.65625 2.65625 3.101563 6.792969 1.085938 9.953126-5.726562 9-9.886719 18.839843-12.351562 29.261718-.855469 3.609375-4.078126 6.152344-7.785157 6.152344zm0 0"/><path d="m392 496h-48c-4.414062 0-8-3.582031-8-8v-12.761719c-7.777344-2.324219-15.28125-5.503906-22.433594-9.496093l-11.910156 11.914062c-3.128906 3.128906-8.183594 3.128906-11.3125 0l-32-32c-3.128906-3.128906-3.128906-8.183594 0-11.3125l11.914062-11.910156c-4-7.152344-7.167968-14.65625-9.496093-22.433594h-92.761719c-4.414062 0-8-3.582031-8-8v-152h-40c-17.648438 0-32-14.351562-32-32s14.351562-32 32-32 32 14.351562 32 32h-16c0-8.824219-7.175781-16-16-16s-16 7.175781-16 16 7.175781 16 16 16h48c4.417969 0 8 3.585938 8 8v152h90.894531c3.707031 0 6.929688 2.542969 7.785157 6.160156 2.441406 10.3125 6.609374 20.144532 12.382812 29.230469 2.007812 3.167969 1.5625 7.304687-1.09375 9.953125l-10.65625 10.65625 20.6875 20.6875 10.664062-10.664062c2.648438-2.65625 6.792969-3.109376 9.953126-1.09375 9.085937 5.773437 18.925781 9.941406 29.230468 12.382812 3.609375.855469 6.160156 4.078125 6.160156 7.785156v10.902344h32v-10.894531c0-3.707031 2.542969-6.929688 6.160157-7.785157 10.417969-2.464843 20.265625-6.625 29.265625-12.351562 3.160156-2.023438 7.300781-1.570312 9.949218 1.085938l10.617188 10.632812 20.6875-20.6875-10.632812-10.632812c-2.65625-2.65625-3.101563-6.792969-1.085938-9.949219 5.726562-9 9.886719-18.84375 12.351562-29.265625.855469-3.609375 4.078126-6.160156 7.785157-6.160156h10.894531v-32h-10.894531c-3.707031 0-6.929688-2.542969-7.785157-6.160157-2.441406-10.3125-6.609374-20.144531-12.382812-29.230469-2.007812-3.167968-1.5625-7.304687 1.09375-9.953124l10.65625-10.648438-20.6875-20.6875-10.664062 10.664062c-2.648438 2.648438-6.785157 3.105469-9.953126 1.09375-9.085937-5.773437-18.925781-9.941406-29.230468-12.382812-3.609375-.855469-6.160156-4.078125-6.160156-7.785156v-98.902344c0-4.414062 3.585937-8 8-8h88v-144h-86.046876c-4.273437 0-8.296874 1.664062-11.320312 4.6875l-8.96875 8.96875c-3.128906 3.128906-8.183594 3.128906-11.3125 0l-8.96875-8.96875c-3.023438-3.023438-7.039062-4.6875-11.320312-4.6875h-86.054688v144h-16v-152c0-4.414062 3.585938-8 8-8h94.054688c8.546874 0 16.585937 3.328125 22.632812 9.375l3.3125 3.3125 3.3125-3.3125c6.039062-6.046875 14.078125-9.375 22.632812-9.375h94.054688c4.417969 0 8 3.585938 8 8v160c0 4.417969-3.582031 8-8 8h-88v84.761719c7.777344 2.328125 15.28125 5.503906 22.433594 9.496093l11.910156-11.914062c3.128906-3.128906 8.183594-3.128906 11.3125 0l32 32c3.128906 3.128906 3.128906 8.183594 0 11.3125l-11.910156 11.910156c4 7.152344 7.167968 14.65625 9.492187 22.433594h12.761719c4.417969 0 8 3.585938 8 8v48c0 4.417969-3.582031 8-8 8h-12.75c-2.328125 7.832031-5.496094 15.34375-9.472656 22.464844l11.878906 11.878906c3.128906 3.128906 3.128906 8.183594 0 11.3125l-32 32c-3.128906 3.128906-8.183594 3.128906-11.3125 0l-11.878906-11.878906c-7.121094 3.976562-14.632813 7.144531-22.464844 9.472656v12.75c0 4.417969-3.582031 8-8 8zm0 0"/><path d="m368 448c-44.113281 0-80-35.886719-80-80s35.886719-80 80-80 80 35.886719 80 80-35.886719 80-80 80zm0-144c-35.289062 0-64 28.710938-64 64s28.710938 64 64 64 64-28.710938 64-64-28.710938-64-64-64zm0 0"/><path d="m368 416c-26.472656 0-48-21.527344-48-48s21.527344-48 48-48 48 21.527344 48 48-21.527344 48-48 48zm0-80c-17.648438 0-32 14.351562-32 32s14.351562 32 32 32 32-14.351562 32-32-14.351562-32-32-32zm0 0"/><path d="m272 32h48v16h-48zm0 0"/><path d="m272 64h48v16h-48zm0 0"/><path d="m272 96h72v16h-72zm0 0"/><path d="m272 128h72v16h-72zm0 0"/><path d="m392 32h72v16h-72zm0 0"/><path d="m392 64h72v16h-72zm0 0"/><path d="m416 96h48v16h-48zm0 0"/><path d="m416 128h48v16h-48zm0 0"/><path d="m360 24h16v136h-16zm0 0"/></svg>