<svg id="_x31__x2C_5" enable-background="new 0 0 24 24" height="512" viewBox="0 0 24 24" width="512" xmlns="http://www.w3.org/2000/svg"><path d="m13.861 3.609h-6.144-4.578c-1.417 0-2.564 1.147-2.564 2.564v9.081 2.573c0 1.417 1.147 2.564 2.564 2.564h6.144 4.578c1.417 0 2.564-1.147 2.564-2.564v-9.081-2.573c0-1.417-1.147-2.564-2.564-2.564z" fill="#2196f3"/><path d="m11.875 2.125h-.99c-.297-1.035-1.251-1.8-2.385-1.8s-2.088.765-2.385 1.8h-.99c-.369 0-.675.306-.675.675v1.8c0 .864.711 1.575 1.575 1.575h4.95c.864 0 1.575-.711 1.575-1.575v-1.8c0-.369-.306-.675-.675-.675z" fill="#1976d2"/><path d="m13.063 23.384c-.178 0-.35-.07-.477-.198-.156-.156-.226-.377-.187-.595l.477-2.705c.024-.136.09-.262.187-.36l6.682-6.682c.821-.822 1.627-.6 2.068-.159l1.114 1.114c.614.614.614 1.613 0 2.227l-6.682 6.682c-.098.098-.223.163-.36.188l-2.704.477c-.039.007-.079.011-.118.011zm2.705-1.153h.009z" fill="#ffc107"/><path d="m12.527 24c-.197 0-.389-.078-.53-.22-.173-.173-.251-.42-.208-.66l.53-3.005c.026-.152.1-.292.208-.4l7.425-7.425c.912-.913 1.808-.667 2.298-.177l1.237 1.237c.683.683.683 1.792 0 2.475l-7.425 7.425c-.108.108-.248.182-.4.208l-3.005.53c-.043.008-.087.012-.13.012zm3.005-1.28h.01zm-1.777-2.112-.303 1.717 1.717-.303 7.258-7.258c.098-.098.098-.256 0-.354l-1.228-1.228c-.01.019-.086.066-.187.167z"/><path d="m10.01 21h-7.26c-1.517 0-2.75-1.233-2.75-2.75v-12.5c0-1.517 1.233-2.75 2.75-2.75h1.88c.414 0 .75.336.75.75s-.336.75-.75.75h-1.88c-.689 0-1.25.561-1.25 1.25v12.5c0 .689.561 1.25 1.25 1.25h7.26c.414 0 .75.336.75.75s-.336.75-.75.75z"/><path d="m16.25 13.56c-.414 0-.75-.336-.75-.75v-7.06c0-.689-.561-1.25-1.25-1.25h-1.87c-.414 0-.75-.336-.75-.75s.336-.75.75-.75h1.87c1.517 0 2.75 1.233 2.75 2.75v7.06c0 .414-.336.75-.75.75z"/><path d="m11.25 6.5h-5.5c-.965 0-1.75-.785-1.75-1.75v-2c0-.414.336-.75.75-.75h1.104c.328-1.153 1.389-2 2.646-2s2.318.847 2.646 2h1.104c.414 0 .75.336.75.75v2c0 .965-.785 1.75-1.75 1.75zm-5.75-3v1.25c0 .138.112.25.25.25h5.5c.138 0 .25-.112.25-.25v-1.25h-1c-.414 0-.75-.336-.75-.75 0-.689-.561-1.25-1.25-1.25s-1.25.561-1.25 1.25c0 .414-.336.75-.75.75z"/><path d="m13.25 9.5h-9.5c-.414 0-.75-.336-.75-.75s.336-.75.75-.75h9.5c.414 0 .75.336.75.75s-.336.75-.75.75z"/><path d="m13.25 12.5h-9.5c-.414 0-.75-.336-.75-.75s.336-.75.75-.75h9.5c.414 0 .75.336.75.75s-.336.75-.75.75z"/><path d="m13.25 15.5h-9.5c-.414 0-.75-.336-.75-.75s.336-.75.75-.75h9.5c.414 0 .75.336.75.75s-.336.75-.75.75z"/></svg>