<svg height="512" viewBox="0 0 64 64" width="512" xmlns="http://www.w3.org/2000/svg"><g id="Fill_Outline"><g id="Color"><g><path d="m3 54h6.43a84.035 84.035 0 0 1 18.9 2.152 3 3 0 0 0 3.67-2.923v-31.229a5 5 0 0 0 -5-5h-24z" fill="#a1d51c"/><path d="m31.037 55.408a23.8 23.8 0 0 0 -12.248-3.408h-13.789v-35h22a5 5 0 0 1 4.581 3.007 8.545 8.545 0 0 1 .419 2.6v30.622a2.961 2.961 0 0 1 -.963 2.179z" fill="#7ab92d"/><path d="m61 54h-6.43a84.035 84.035 0 0 0 -18.9 2.152 3 3 0 0 1 -3.67-2.923v-31.229a5 5 0 0 1 5-5h24z" fill="#a1d51c"/><path d="m32.963 55.408a23.8 23.8 0 0 1 12.248-3.408h13.789v-35h-22a5 5 0 0 0 -4.581 3.007 8.545 8.545 0 0 0 -.419 2.6v30.622a2.961 2.961 0 0 0 .963 2.179z" fill="#7ab92d"/><path d="m23.394 12h-16.394v38h11.789a23.817 23.817 0 0 1 13.211 4v-33.394a8.606 8.606 0 0 0 -3.832-7.161 8.611 8.611 0 0 0 -4.774-1.445z" fill="#aae1f9"/><path d="m40.606 12h16.394v38h-11.789a23.817 23.817 0 0 0 -13.211 4v-33.394a8.606 8.606 0 0 1 3.832-7.161 8.611 8.611 0 0 1 4.774-1.445z" fill="#aae1f9"/><path d="m42.758 46.129a6.037 6.037 0 0 1 -6.758-5.95v-26.829c-.055.035-.114.059-.168.1a8.606 8.606 0 0 0 -3.832 7.156v33.394a23.817 23.817 0 0 1 13.211-4h11.789v-4h-11.789a23.565 23.565 0 0 0 -2.453.129z" fill="#57b7eb"/><path d="m30 15.112v32.708a23.8 23.8 0 0 0 -11.211-2.82 6.788 6.788 0 0 1 -6.789-6.789v-26.211h-5v38h11.789a23.817 23.817 0 0 1 13.211 4v-33.394a8.592 8.592 0 0 0 -2-5.494z" fill="#57b7eb"/><path d="m34 17.606a8.6 8.6 0 0 1 .592-3.134 8.6 8.6 0 0 0 -2.592 6.134v33.394l.019-.013a4.3 4.3 0 0 0 1.981-3.568z" fill="#4891d3"/></g></g><g id="Outline"><g fill="#39519d"><path d="m61 16a1 1 0 0 0 -1 1v36h-5.43a85.082 85.082 0 0 0 -19.12 2.178 1.992 1.992 0 0 1 -2.1-.834 22.732 22.732 0 0 1 11.861-3.344h11.789a1 1 0 0 0 1-1v-7a1 1 0 0 0 -2 0v6h-10.789a24.728 24.728 0 0 0 -12.211 3.212v-27.212a1 1 0 0 0 -2 0v27.211a24.724 24.724 0 0 0 -12.211-3.211h-10.789v-36h15.4a7.605 7.605 0 0 1 7.6 7.605 1 1 0 1 0 2 0 7.605 7.605 0 0 1 7.6-7.605h15.4v26a1 1 0 0 0 2 0v-27a1 1 0 0 0 -1-1h-16.4a9.613 9.613 0 0 0 -8.6 5.332 9.613 9.613 0 0 0 -8.6-5.332h-16.4a1 1 0 0 0 -1 1v38a1 1 0 0 0 1 1h11.789a22.732 22.732 0 0 1 11.863 3.344 2 2 0 0 1 -2.1.834 85.069 85.069 0 0 0 -19.122-2.178h-5.43v-36a1 1 0 0 0 -2 0v37a1 1 0 0 0 1 1h6.43a83.117 83.117 0 0 1 18.67 2.127 3.98 3.98 0 0 0 3.9-1.268 3.978 3.978 0 0 0 3.9 1.268 83.145 83.145 0 0 1 18.67-2.127h6.43a1 1 0 0 0 1-1v-37a1 1 0 0 0 -1-1z"/><path d="m28.723 19.613a9.579 9.579 0 0 0 -5.323-1.613h-11.4a1 1 0 0 0 0 2h11.4a7.576 7.576 0 0 1 4.218 1.277 1 1 0 1 0 1.11-1.664z"/><path d="m52 18h-11.4a9.581 9.581 0 0 0 -5.328 1.613 1 1 0 0 0 1.11 1.664 7.581 7.581 0 0 1 4.218-1.277h11.4a1 1 0 0 0 0-2z"/><path d="m28.723 24.613a9.579 9.579 0 0 0 -5.323-1.613h-11.4a1 1 0 0 0 0 2h11.4a7.576 7.576 0 0 1 4.218 1.277 1 1 0 1 0 1.11-1.664z"/><path d="m52 23h-11.4a9.581 9.581 0 0 0 -5.328 1.613 1 1 0 0 0 1.11 1.664 7.581 7.581 0 0 1 4.218-1.277h11.4a1 1 0 0 0 0-2z"/><path d="m28.723 29.613a9.579 9.579 0 0 0 -5.323-1.613h-11.4a1 1 0 0 0 0 2h11.4a7.576 7.576 0 0 1 4.218 1.277 1 1 0 1 0 1.11-1.664z"/><path d="m52 28h-11.4a9.581 9.581 0 0 0 -5.328 1.613 1 1 0 0 0 1.11 1.664 7.581 7.581 0 0 1 4.218-1.277h11.4a1 1 0 0 0 0-2z"/><path d="m28.723 34.613a9.579 9.579 0 0 0 -5.323-1.613h-11.4a1 1 0 0 0 0 2h11.4a7.576 7.576 0 0 1 4.218 1.277 1 1 0 1 0 1.11-1.664z"/><path d="m52 33h-11.4a9.581 9.581 0 0 0 -5.328 1.613 1 1 0 0 0 1.11 1.664 7.581 7.581 0 0 1 4.218-1.277h11.4a1 1 0 0 0 0-2z"/><path d="m28.723 39.613a9.579 9.579 0 0 0 -5.323-1.613h-11.4a1 1 0 0 0 0 2h11.4a7.576 7.576 0 0 1 4.218 1.277 1 1 0 1 0 1.11-1.664z"/><path d="m52 38h-11.4a9.581 9.581 0 0 0 -5.328 1.613 1 1 0 0 0 1.11 1.664 7.581 7.581 0 0 1 4.218-1.277h11.4a1 1 0 0 0 0-2z"/><path d="m23.4 43h-11.4a1 1 0 0 0 0 2h11.4a7.576 7.576 0 0 1 4.218 1.277 1 1 0 1 0 1.11-1.664 9.579 9.579 0 0 0 -5.328-1.613z"/><path d="m52 43h-11.4a9.581 9.581 0 0 0 -5.328 1.613 1 1 0 0 0 1.11 1.664 7.581 7.581 0 0 1 4.218-1.277h11.4a1 1 0 0 0 0-2z"/></g></g></g></svg>